<?xml version="1.0" encoding="UTF-8" standalone="no"?>
<!-- Created with Inkscape (http://www.inkscape.org/) -->

<svg
   version="1.1"
   width="657.87964mm"
   height="199.77579mm"
   viewBox="0 0 2331.0696 707.86696"
   id="svg3391"
   xmlns="http://www.w3.org/2000/svg"
   xmlns:svg="http://www.w3.org/2000/svg">
  <defs
     id="defs3393" />
  <g
     transform="translate(572.90375,-145.6246)"
     id="layer1">
    <path
       d="m 321.24191,852.53357 c -1.72321,-0.52418 -5.01615,-1.9268 -7.31765,-3.11697 -3.26409,-1.68792 -5.59943,-1.95787 -10.6169,-1.22722 -3.5378,0.51517 -8.68236,1.03356 -11.43236,1.15196 -2.75,0.11838 -8.72407,0.65992 -13.27573,1.20336 -8.00213,0.95543 -8.64641,0.81733 -19.48967,-4.17756 -12.51234,-5.76374 -17.27659,-6.3423 -21.95069,-2.66565 -5.83895,4.59291 -9.65891,2.82224 -9.65891,-4.47724 0,-3.5746 -0.13345,-3.5908 -8.67854,-1.05318 -8.46751,2.51458 -10.23325,1.18668 -6.84941,-5.15103 2.79914,-5.24259 10.04671,-11.50662 18.02795,-15.58142 6.34195,-3.23787 23.00752,-5.10434 44.375,-4.96979 6.875,0.0433 16.4375,-0.45466 21.25,-1.10655 36.07944,-4.88725 46.83008,-7.3546 61.875,-14.20081 16.04123,-7.29958 19.27585,-9.15134 23.87425,-13.66759 2.56629,-2.52043 7.10379,-5.69735 10.08336,-7.05983 5.06545,-2.31627 19.31805,-11.14761 34.92507,-21.6406 9.35512,-6.2897 34.94081,-32.98091 41.65336,-43.45316 3.05781,-4.77051 6.11672,-10.83144 6.79756,-13.46872 0.68084,-2.6373 1.63046,-15.6075 2.11028,-28.82269 0.80905,-22.28316 0.67011,-24.86961 -1.91377,-35.625 -1.53239,-6.37857 -4.67144,-19.47239 -6.97565,-29.09739 -4.15746,-17.36626 -6.63962,-32.31835 -7.15907,-43.125 l -0.27039,-5.625 -43.32285,0.24858 c -35.9406,0.20621 -44.67365,0.60502 -51.25,2.34043 -9.64084,2.54409 -24.69643,4.52107 -37.30215,4.8982 -5.15625,0.15427 -11.04169,0.955 -13.07874,1.77943 -3.46156,1.40092 -10.38661,1.50713 -70.67126,1.08401 -5.15625,-0.0362 -16.96875,0.334 -26.25,0.82264 -15.02729,0.79117 -29.95545,0.10762 -57.44916,-2.6304 -5.6176,-0.55944 -6.59288,-0.38021 -5.5161,1.01375 0.71943,0.93135 2.58566,5.18866 4.14717,9.46069 2.55191,6.9816 2.68696,8.40155 1.33505,14.03696 -1.90951,7.95974 -1.95671,34.27007 -0.092,51.32071 3.98282,36.41961 5.44146,84.64414 2.71437,89.73978 -1.46558,2.73847 -2.71779,14.16592 -3.31588,30.26022 -1.02981,27.71214 -3.48725,33.89508 -20.99415,52.82148 -12.57026,13.58949 -15.27684,15.22743 -38.46314,23.27662 -7.83261,2.71911 -18.45985,6.46301 -23.6161,8.31979 -11.94856,4.30269 -28.55958,5.69886 -31.1185,2.61556 -2.13265,-2.56969 -6.95867,-2.56867 -18.93054,0.004 -9.24462,1.98658 -9.63132,1.97098 -15.49996,-0.625 -3.3104,-1.46413 -7.3187,-2.6622 -8.9074,-2.6622 -5.66664,0 -20.00577,-3.96914 -25.14125,-6.95921 -6.02898,-3.51031 -10.44271,-3.79773 -17.90241,-1.16579 -7.41472,2.61606 -8.77424,2.3861 -10.33475,-1.74815 -1.05713,-2.80066 -2.38035,-3.7907 -5.82891,-4.36124 -8.44133,-1.39656 -18.18344,-0.8333 -21.11618,1.22088 -5.99824,4.20132 -8.51559,-1.67325 -4.41762,-10.30906 3.78547,-7.9773 22.08906,-17.92743 32.97808,-17.92743 2.5219,0 6.21858,-0.78528 8.21483,-1.74505 2.43314,-1.16984 13.10644,-2.2359 32.37955,-3.23412 l 28.75,-1.48908 19.05909,-6.06359 c 15.71495,-4.99966 20.10148,-6.93884 25,-11.05181 3.2675,-2.74353 7.52531,-5.37995 9.46178,-5.85872 3.33597,-0.82478 3.50764,-1.20695 3.26865,-7.27657 -0.24948,-6.3361 0.11076,-9.96273 2.81428,-28.3344 1.14646,-7.7906 1.03933,-11.04755 -0.61675,-18.75 -1.10231,-5.12691 -2.61417,-14.94666 -3.3597,-21.82166 -0.74551,-6.875 -2.1611,-16.15625 -3.14575,-20.625 -0.98464,-4.46875 -2.95947,-14.3125 -4.38851,-21.875 -1.42904,-7.5625 -3.19165,-16.84375 -3.91694,-20.625 -1.17915,-6.14747 -3.88653,-11.27511 -5.93239,-11.23566 -0.40906,0.008 -1.83966,2.30111 -3.17908,5.09606 -1.33943,2.79494 -4.05562,5.91959 -6.03598,6.94367 -1.98035,1.02409 -4.39361,3.75982 -5.3628,6.0794 -3.98516,9.53784 -23.76226,28.11653 -29.93016,28.11653 -0.89875,0 -5.76321,3.45731 -10.80991,7.68293 -5.0467,4.22561 -10.86333,8.39771 -12.92583,9.27133 -2.0625,0.87363 -6,3.21563 -8.75,5.20444 -2.75,1.98881 -12.03125,7.76668 -20.625,12.83969 -8.59375,5.07301 -17.43244,10.66432 -19.64154,12.42514 -8.47781,6.75742 -11.12321,8.46581 -15.35077,9.91345 -2.40203,0.82252 -6.33953,2.78711 -8.75,4.36575 -12.81433,8.39221 -20.25926,13.18395 -21.02507,13.53223 -0.4717,0.21453 -1.72029,2.07754 -2.77467,4.14004 -1.05437,2.0625 -4.56999,5.49031 -7.81247,7.61736 -3.24249,2.12705 -8.56732,6.64649 -11.83295,10.04322 -3.26564,3.39672 -9.42169,8.2874 -13.68012,10.86817 -7.2504,4.39404 -8.5615,4.73941 -20.625,5.43324 -7.82981,0.45031 -14.84346,1.57971 -17.88241,2.87957 -2.75,1.17627 -6.84962,2.86713 -9.11027,3.75749 -2.26065,0.89035 -4.67008,2.66484 -5.35429,3.9433 -2.57709,4.81533 -10.84138,7.63343 -21.83634,7.44614 -12.34017,-0.2102 -13.5158,0.18506 -16.72434,5.62314 -2.73564,4.63656 -5.53679,5.31871 -9.74291,2.37262 -2.48157,-1.73816 -3.08121,-1.63165 -7.43043,1.3198 -4.25855,2.88994 -5.49398,3.12884 -12.37137,2.39233 l -7.64038,-0.81822 -3.64483,7.31093 c -2.64849,5.3124 -4.432,7.4225 -6.52443,7.71914 -2.41484,0.34235 -3.3123,-0.61595 -5.56059,-5.9375 -2.92078,-6.91329 -4.03048,-7.73292 -5.07287,-3.74684 -0.48854,1.86816 -1.49603,2.48321 -3.58329,2.1875 -4.32402,-0.61263 -7.01699,-9.05846 -5.01687,-15.73423 1.33262,-4.44789 2.61822,-5.58136 13.04576,-11.50195 12.16867,-6.9092 18.70219,-11.70386 29.17079,-21.40721 7.01626,-6.50336 13.62242,-10.18332 28.76152,-16.02158 5.55196,-2.14106 11.45363,-5.36052 13.1148,-7.15437 1.66119,-1.79384 8.08284,-5.75465 14.27034,-8.80181 6.1875,-3.04717 12.9375,-7.13762 15,-9.08988 2.0625,-1.95227 4.91549,-3.899 6.33997,-4.32607 1.42448,-0.42708 3.903,-3.161 5.50782,-6.0754 3.76531,-6.83793 15.63088,-19.55483 21.39158,-22.92638 2.46917,-1.44512 6.99157,-3.48007 10.0498,-4.52211 3.83432,-1.30649 7.93385,-4.37119 13.20611,-9.87251 9.59382,-10.01069 23.46217,-27.07265 29.42131,-36.19651 5.0168,-7.68105 15.09509,-16.89189 22.83341,-20.86813 2.75,-1.41305 6.9282,-4.57662 9.28489,-7.03016 2.35669,-2.45355 6.0562,-5.04559 8.22114,-5.76008 4.80032,-1.58425 14.32796,-12.34392 17.7193,-20.0106 3.23358,-7.31009 8.49362,-29.0524 10.21608,-42.22811 0.7453,-5.70113 2.13471,-11.88863 3.08758,-13.75 2.44369,-4.77359 5.84601,-15.72936 5.84601,-18.82465 0,-1.46514 -1.30595,-3.30591 -2.98485,-4.20722 -1.64166,-0.88134 -6.51466,-5.51175 -10.82887,-10.2898 -8.43188,-9.33845 -17.00108,-16.60558 -23.61199,-20.02422 -2.2678,-1.17272 -7.90444,-6.02756 -12.52585,-10.78851 -9.85329,-10.15083 -19.00393,-16.95344 -24.35522,-18.10574 -2.10002,-0.4522 -6.06822,-2.12879 -8.81822,-3.72576 -3.87284,-2.24903 -8.10295,-3.16928 -18.7645,-4.0822 -7.57049,-0.64824 -15.93605,-2.08595 -18.59016,-3.1949 -2.6541,-1.10896 -5.9283,-2.01629 -7.27598,-2.01629 -1.34767,0 -6.20086,-1.62064 -10.78485,-3.60141 -4.58397,-1.98078 -10.58451,-3.98754 -13.33451,-4.45948 -4.85289,-0.8328 -15.61961,-4.06527 -33.8747,-10.17011 -11.79158,-3.94333 -23.79804,-6.60565 -29.57448,-6.55788 -2.71336,0.0225 -7.99568,-1.5395 -12.5,-3.69617 -4.29045,-2.05428 -10.33207,-4.14221 -13.42582,-4.63985 -3.09375,-0.49764 -7.52668,-1.68765 -9.85096,-2.64446 -2.32428,-0.95682 -11.04303,-2.30764 -19.375,-3.00184 -8.33197,-0.6942 -20.49279,-1.86498 -27.02404,-2.60173 -12.09349,-1.36418 -32.98943,-0.18716 -46.875,2.64038 -3.4375,0.69997 -12.52723,1.97416 -20.19939,2.83151 -9.09571,1.01644 -14.74987,2.25246 -16.25,3.55234 -3.87,3.35339 -21.50365,11.21351 -27.70091,12.34756 -6.74829,1.23489 -18.14525,4.04424 -31.27874,7.71024 -5.04847,1.40919 -12.64222,3.03896 -16.875,3.62171 -4.23278,0.58275 -11.3478,1.62325 -15.81115,2.31221 -9.06221,1.39885 -11.84365,0.9591 -20.0832,-3.17517 -6.15204,-3.08684 -9.40598,-8.59991 -12.27561,-20.79829 -2.83049,-12.03199 -0.6998,-13.99347 7.68919,-7.07856 5.11918,4.21966 5.27804,4.17409 3.30212,-0.94713 -1.96249,-5.08641 -1.69803,-11.23456 0.63651,-14.79751 3.10625,-4.74074 5.42724,-3.75287 9.17226,3.90393 l 3.42392,7.00027 6.01108,-0.57386 c 8.18502,-0.7814 9.11238,-1.99286 6.60851,-8.6331 -1.12377,-2.98024 -2.1729,-7.6686 -2.3314,-10.4186 -0.26052,-4.51986 0.0182,-5.03569 2.90203,-5.37166 1.98729,-0.23153 4.06352,0.59331 5.50624,2.1875 1.2738,1.40753 3.85734,2.55916 5.7412,2.55916 h 3.42519 l -2.23646,-7.1875 c -3.02118,-9.70936 -4.28217,-22.57995 -2.63309,-26.875 2.29391,-5.97452 5.54286,-4.37543 11.42854,5.625 10.58475,17.98468 10.9505,18.4375 14.89231,18.4375 3.41978,0 3.61279,-0.26007 3.01497,-4.0625 -0.35128,-2.23438 0.10838,-6.3125 1.02154,-9.0625 2.54975,-7.67885 5.5229,-6.73472 10.82503,3.4375 2.41886,4.64062 4.83484,8.4375 5.36886,8.4375 0.53401,0 1.1362,-4.07813 1.33819,-9.0625 0.33102,-8.16829 0.63097,-9.1001 3.03986,-9.4436 1.90492,-0.27164 4.00969,1.25063 7.32758,5.29969 2.56025,3.12443 5.15445,5.37211 5.76491,4.99483 0.61045,-0.37728 1.10991,-3.07651 1.10991,-5.99828 0,-6.14259 2.44511,-10.30834 5.38776,-9.17914 1.09962,0.42195 3.25593,3.18522 4.79183,6.1406 l 2.79255,5.3734 0.97644,-5.47469 c 2.20753,-12.37722 9.93093,-15.94447 10.30142,-4.75796 0.0688,2.07587 0.88891,4.02895 1.82258,4.34017 1.33065,0.44355 1.51411,-0.52008 0.84877,-4.45821 -0.91603,-5.4219 1.06019,-10.27431 4.18436,-10.27431 0.96489,0 3.50146,1.97209 5.63682,4.38242 2.15217,2.4293 5.27519,4.51838 7.00747,4.6875 2.66176,0.25985 3.07074,-0.15816 2.75896,-2.81992 -0.20132,-1.71875 -0.46979,-5.18945 -0.59658,-7.71266 -0.43561,-8.66783 8.40936,-13.4324 10.47924,-5.64493 1.49333,5.61834 3.45505,7.10759 9.36252,7.10759 h 5.44803 l -0.73316,-5.34904 c -0.93902,-6.85086 2.05948,-14.65096 5.63209,-14.65096 1.36326,0 3.68028,1.6875 5.1489,3.75 3.63794,5.10901 6.67824,4.77724 16.73159,-1.82583 4.66913,-3.06671 9.47457,-5.88852 10.67873,-6.27071 3.75162,-1.19071 5.44618,-6.12892 4.86419,-14.17492 -0.45247,-6.25533 -1.21939,-8.2565 -4.70906,-12.28789 -2.29272,-2.64861 -6.96839,-6.72497 -10.39036,-9.0586 -6.10317,-4.16204 -6.3441,-4.21475 -12.63594,-2.76398 -3.52779,0.81342 -9.65755,2.66078 -13.62171,4.10525 -8.32958,3.03513 -9.51474,5.34755 -7.28306,14.21032 1.56575,6.21816 0.26002,10.56636 -3.17299,10.56636 -3.50291,0 -9.20956,-4.20683 -9.26776,-6.83201 -0.031,-1.39864 -0.85752,-4.23049 -1.83668,-6.29299 l -1.78029,-3.75 0.20705,5.03484 c 0.11388,2.76916 -0.21782,5.72229 -0.73711,6.5625 -1.74359,2.8212 -5.78489,1.6039 -8.41539,-2.53484 l -2.58203,-4.0625 0.80973,7.14252 c 0.76725,6.76771 0.65517,7.18132 -2.13587,7.88183 -4.96246,1.24549 -9.57274,-1.49146 -13.70231,-8.13454 -2.14193,-3.44565 -4.10179,-6.26481 -4.35525,-6.26481 -0.25347,0 -0.31,2.39062 -0.12565,5.3125 0.29987,4.75309 0.0231,5.35664 -2.62789,5.73166 -2.08641,0.29517 -4.3978,-0.98181 -7.8125,-4.31617 -3.25633,-3.17973 -4.84944,-4.08634 -4.84944,-2.75973 0,1.08659 0.84375,2.67588 1.875,3.53174 1.03125,0.85586 1.875,2.89349 1.875,4.52805 0,4.19657 -4.29036,3.90431 -11.70401,-0.79729 -5.37757,-3.41035 -6.18814,-3.59785 -8.51323,-1.96928 -2.92235,2.04688 -5.42507,1.47549 -9.46534,-2.16101 -3.73153,-3.35862 -4.67663,-2.05253 -3.07648,4.25158 1.47821,5.82369 0.87744,8.64795 -1.83959,8.64795 -2.61366,0 -11.89912,-5.64705 -15.38271,-9.35516 -4.169,-4.4377 -6.41003,-4.08143 -6.07016,0.96503 0.33298,4.94444 -0.8369,7.14013 -3.80435,7.14013 -2.6331,0 -7.01746,-4.506 -8.20969,-8.4375 -0.4691,-1.54688 -1.3775,-2.8125 -2.01868,-2.8125 -1.68846,0 -1.43345,4.68702 0.31376,5.76686 1.01229,0.62562 0.71622,1.18414 -0.9375,1.76853 -3.84016,1.35705 -9.19083,-1.21517 -11.4065,-5.48341 -1.12481,-2.16683 -2.27503,-3.22663 -2.56618,-2.36448 -0.73987,2.19084 -6.22667,1.95284 -7.50163,-0.32539 -0.85994,-1.53662 -2.15063,-0.86898 -6.93711,3.58839 -6.96804,6.48894 -7.47813,10.12854 -3.15542,22.51444 1.49885,4.29466 2.36025,8.75945 1.91423,9.92176 -1.10276,2.87374 -5.36387,2.65775 -9.79348,-0.49641 -3.94731,-2.81073 -9.84593,-13.20423 -9.84593,-17.34874 0,-1.39785 -0.5625,-2.54155 -1.25,-2.54155 -1.92351,0 -1.44268,3.82955 1.21634,9.6875 1.90712,4.20147 2.0491,5.3125 0.67892,5.3125 -4.28599,0 -7.81132,-2.60144 -9.94878,-7.34149 -1.26249,-2.79971 -2.77736,-4.79254 -3.36638,-4.42851 -0.58901,0.36404 -0.18777,2.36973 0.89165,4.4571 1.07943,2.08737 1.70624,4.05157 1.39292,4.3649 -1.42337,1.42337 -7.44953,-1.41929 -8.66529,-4.0876 -0.74287,-1.63042 -1.82288,-2.9644 -2.40002,-2.9644 -1.38129,0 -1.32373,0.90169 0.24462,3.83217 1.10523,2.06514 0.87731,2.41281 -1.5625,2.38342 -1.77305,-0.0214 -4.04176,-1.64017 -5.98148,-4.268 -1.71875,-2.32848 -5.52929,-5.40606 -8.46787,-6.8391 -6.21177,-3.02924 -7.92226,-6.45278 -8.1767,-16.36563 -0.18521,-7.21585 2.37995,-13.45277 12.37637,-30.09188 4.99885,-8.32063 21.64575,-23.74096 29.37661,-27.21212 6.63045,-2.97707 24.98117,-8.57163 31.32849,-9.55108 2.50904,-0.38718 5.28391,-1.57393 6.16637,-2.63723 2.28994,-2.75921 10.38044,-6.67303 19.19003,-9.28331 4.16994,-1.23555 14.53918,-4.82737 23.04275,-7.98185 10.60483,-3.93395 17.47563,-5.7588 21.875,-5.80991 9.64256,-0.11203 27.97156,-3.87419 32.33236,-6.63647 1.55738,-0.98649 4.80034,-2.17054 7.20659,-2.63123 2.40625,-0.46069 10.28125,-2.21064 17.5,-3.88878 29.67836,-6.89932 34.81246,-7.90431 44.375,-8.68627 5.5,-0.44975 15.24115,-0.72585 21.64701,-0.61355 14.10015,0.24718 29.44468,-2.89386 33.97799,-6.95532 1.71875,-1.53986 7.45211,-4.81374 12.74081,-7.2753 10.81201,-5.03232 15.38244,-5.20294 35.76783,-1.3353 5.711,1.08352 11.44683,1.6326 12.7463,1.22016 2.56237,-0.81326 14.07079,3.63173 16.27304,6.28528 0.9429,1.13613 5.0815,1.64795 13.56921,1.67809 6.96876,0.0248 14.58809,0.80312 17.74516,1.81279 4.22513,1.35124 11.73629,1.6804 31.78265,1.39277 41.98675,-0.60243 44.63985,-0.5141 49.19675,1.63795 4.4501,2.1016 4.1756,2.13842 27.34526,-3.66762 4.75435,-1.19139 6.01907,-0.9704 12.44825,2.17511 8.59105,4.20321 21.22659,5.07368 34.5504,2.38021 5.9737,-1.20761 13.29979,-1.5138 24.375,-1.01875 9.10488,0.40698 18.1424,0.16709 21.26519,-0.56446 3.70568,-0.8681 6.60591,-0.86261 9.12995,0.0173 2.7912,0.97302 5.45989,0.79546 10.87317,-0.72343 10.47279,-2.93851 21.58003,-3.83918 26.66201,-2.16198 4.82842,1.59352 20.14897,-0.37593 34.23333,-4.40068 7.2239,-2.0643 7.86866,-2.06121 13.75,0.0659 3.39388,1.22746 7.57694,2.23205 9.29569,2.23242 28.91665,0.006 35.97494,-0.44814 41.875,-2.69586 18.55952,-7.07052 22.07886,-7.80061 36.4999,-7.57201 l 13.99991,0.22193 12.25009,-5.86032 c 16.99739,-8.13138 17.81214,-8.30982 24.28367,-5.31844 6.34997,2.93517 12.89409,3.16073 30.46643,1.05007 9.58796,-1.15163 15.12132,-1.16346 23.75211,-0.0508 11.77352,1.51787 13.86684,1.14945 28.8516,-5.07787 3.86599,-1.60661 8.8965,-0.90957 28.7236,3.98005 4.3875,1.08201 5.7256,0.86963 9.8489,-1.56317 3.58952,-2.11787 7.7508,-3.044 16.79768,-3.73849 11.54295,-0.88611 12.36096,-0.77688 20.36062,2.71869 6.80838,2.97502 10.07917,3.64189 17.8623,3.64189 6.8417,0 10.83525,0.66179 14.16549,2.34745 2.55074,1.2911 6.42138,2.73228 8.60143,3.20263 2.18006,0.47034 5.52108,2.29847 7.4245,4.0625 3.28875,3.0479 3.94091,3.16728 13.12051,2.40174 5.31285,-0.44308 11.5806,-1.60819 13.92834,-2.58913 3.70977,-1.55005 4.74606,-1.54524 7.91576,0.0367 2.00594,1.00115 5.45881,3.85643 7.67304,6.34507 3.94055,4.42888 4.16575,4.50567 10.625,3.62296 3.62952,-0.49601 11.09912,-1.11472 16.59912,-1.37492 5.5,-0.2602 12.04486,-0.81132 14.54414,-1.22472 4.0024,-0.66202 5.04556,-0.2414 8.75,3.52813 5.72727,5.8279 7.11352,6.08666 13.39006,2.49937 3.51964,-2.01161 6.60241,-2.88803 8.75,-2.4876 4.79058,0.89324 19.1856,7.07893 21.76818,9.35401 1.79886,1.58469 3.2227,1.70667 7.77147,0.66576 6.9512,-1.59066 18.42384,0.0521 23.86978,3.4179 5.05262,3.12265 6.82475,3.07075 12.64737,-0.37039 4.33937,-2.5645 6.21463,-2.7971 21.26712,-2.63786 14.01088,0.14823 17.33238,0.57369 21.95713,2.8125 7.02875,3.40257 7.66375,3.36144 19.15675,-1.24057 10.75275,-4.30562 16.41375,-4.30043 21.01175,0.0193 1.45775,1.36942 4.83163,3.40125 7.49775,4.51519 4.68613,1.95798 5.20525,1.90801 15.60788,-1.50257 7.519,-2.46513 13.31337,-3.528 19.23437,-3.52819 8.07463,-2.5e-4 8.62338,0.19102 11.653,4.06223 4.07488,5.20658 8.26975,5.29681 19.81438,0.42618 10.16925,-4.2903 12.33937,-3.8738 20.296,3.89527 l 5.23725,5.11372 6.5375,-2.81237 c 3.7635,-1.61899 10.83087,-3.20368 16.6555,-3.73457 5.56487,-0.50722 11.39687,-1.60666 12.96,-2.44322 4.331,-2.3179 7.50525,-0.60649 9.16787,4.94298 0.8115,2.70848 1.923,4.92451 2.47,4.92451 0.547,0 6.20088,-1.6875 12.564,-3.75 15.3815,-4.98559 17.94563,-4.91004 21.21138,0.625 1.41975,2.40625 3.09537,4.375 3.72362,4.375 2.13963,0 17.9655,-4.71858 24.27863,-7.23881 5.50337,-2.19698 6.7815,-2.30665 10.1885,-0.87416 2.759,1.16009 4.14312,2.76491 4.74387,5.50048 0.69925,3.18342 1.45738,3.86249 4.3125,3.86249 4.54788,0 11.13,-2.3209 15.34688,-5.4114 2.7505,-2.01586 4.15562,-2.26391 7.5,-1.32407 3.46537,0.97386 4.4115,2.08956 5.99037,7.06443 1.1335,3.57139 2.6154,5.91052 3.7469,5.91448 1.0296,0.004 7.1015,-1.73565 13.493,-3.86501 6.7155,-2.23726 12.8311,-3.56789 14.4875,-3.15216 4.3287,1.08642 9.5226,5.64867 9.5226,8.36446 0,2.86321 4.3956,3.11391 11.2463,0.64142 3.0163,-1.08867 5.9068,-1.23263 9.3257,-0.46445 6.4573,1.45083 8.178,3.00484 8.178,7.38535 0,3.23085 0.4135,3.59393 4.0625,3.56728 2.2344,-0.0162 7.4375,-1.41996 11.5625,-3.1192 11.5258,-4.74793 15.1296,-3.92285 19.3964,4.44067 2.3626,4.6311 2.8885,4.9582 7.9719,4.9582 2.9933,0 7.6817,-0.79006 10.4186,-1.7557 4.468,-1.5764 5.495,-1.52342 10.0562,0.51873 2.7942,1.25094 5.7079,3.44726 6.475,4.88071 1.6852,3.14875 3.4891,3.22819 12.0474,0.53044 6.126,-1.93105 6.8053,-1.93172 9.739,-0.01 1.9665,1.28852 3.4693,3.74834 3.9919,6.53455 0.8272,4.40939 0.9026,4.4573 5.7261,3.64237 2.6883,-0.45418 6.4155,-1.5844 8.2826,-2.5116 1.8672,-0.92718 6.1235,-2.41261 9.4587,-3.30093 5.8473,-1.55753 6.152,-1.50604 8.5405,1.44367 1.7061,2.10697 2.2601,4.14303 1.7801,6.54301 -0.8694,4.3465 0.9172,4.4956 11.2324,0.93736 10.9727,-3.78507 13.198,-3.14202 15.3018,4.42186 0.9562,3.4375 1.9174,6.44556 2.1362,6.68458 0.2187,0.23901 3.5513,-0.74536 7.4058,-2.1875 3.8545,-1.44215 8.453,-2.62208 10.2189,-2.62208 3.3365,0 11.5908,5.58462 16.2743,11.01082 2.3977,2.7779 3.1052,2.97397 6.25,1.7319 6.2685,-2.47585 21.3831,-5.62075 23.3627,-4.86109 1.0553,0.40491 2.6016,3.01594 3.4364,5.80228 0.8349,2.78635 1.8506,5.05502 2.2575,5.0415 0.4067,-0.0135 5.1899,-0.8088 10.6291,-1.76728 11.3336,-1.99716 14.2854,-1.31823 18.3868,4.22904 2.4758,3.34893 3.5647,3.81284 8.9491,3.81284 4.2104,0 7.1126,-0.7727 9.2667,-2.46716 4.09,-3.21718 10.6437,-4.40027 14.1072,-2.54667 3.3607,1.79865 6.394,8.66685 5.4395,12.31686 -0.8848,3.38319 0.2491,3.40337 11.4386,0.20345 12.3801,-3.54041 15.13,-2.056 16.0979,8.68975 0.2543,2.8232 0.7478,5.41855 1.0967,5.76742 1.8468,1.84681 18.4653,1.42019 26.0466,-0.66864 5.289,-1.45725 8.9315,-1.86542 10.2188,-1.14508 2.5816,1.44479 5.1009,9.07897 4.0689,12.33044 -0.7109,2.23968 -0.2439,2.51963 4.2031,2.51963 2.7516,0 6.5364,-0.58304 8.4106,-1.29564 10.2038,-3.87946 17.3221,-0.21974 16.9716,8.72552 -0.1087,2.78857 0.1698,5.07012 0.62,5.07012 0.4503,0 3.6807,-0.89292 7.1785,-1.98425 10.4007,-3.24493 14.462,-0.49865 16.3369,11.04675 0.8539,5.25793 1.3404,5.3985 9.8001,2.83178 5.8732,-1.78193 6.1048,-1.7511 9.0625,1.20672 1.6695,1.66945 3.0354,3.67621 3.0354,4.45947 0,0.99301 1.9203,1.16001 6.3434,0.55168 5.5609,-0.7648 6.7175,-0.52108 9.375,1.9756 1.6674,1.56641 3.0316,3.67117 3.0316,4.67725 0,1.48295 1.308,1.67547 6.91,1.01707 8.9726,-1.05456 12.9853,0.0296 14.4593,3.90659 1.0595,2.78666 1.6946,3.04069 5.9152,2.36579 5.653,-0.90395 9.5419,1.34135 10.7651,6.21547 l 0.8354,3.32825 10.0271,-0.83622 10.027,-0.83623 1.3804,3.65704 c 1.142,3.02539 2.0639,3.63766 5.3378,3.54486 2.3217,-0.0657 5.3983,1.02124 7.4436,2.6301 2.065,1.6243 5.2515,2.74228 7.8161,2.74228 3.2518,0 5.2526,0.98766 8.035,3.9662 3.6989,3.95971 3.7151,3.96358 9.9304,2.37067 4.4565,-1.14217 7.1869,-1.23082 9.609,-0.31199 1.861,0.70594 6.0682,1.54023 9.3495,1.85398 3.7834,0.36176 7.8094,1.84797 11.0052,4.06272 4.9768,3.44894 5.113,3.46873 10.9752,1.59409 6.4621,-2.06649 11.4287,-1.17601 11.4287,2.04905 0,2.31909 1.9235,2.3942 9.4898,0.37054 5.6211,-1.50343 5.8488,-1.45279 8.5173,1.89385 2.2933,2.87597 3.3829,3.31039 6.6595,2.65506 3.168,-0.6336 4.5424,-0.1588 7.1824,2.48115 2.1728,2.17278 4.6159,3.26468 7.3046,3.26468 4.5138,0 9.5964,2.97772 9.5964,5.62211 0,2.64032 2.1531,3.40149 5.1241,1.81147 2.2013,-1.17812 3.3052,-0.96673 6.2253,1.19219 1.9521,1.44333 4.9586,2.62423 6.681,2.62423 3.2812,0 5.7196,3.06948 5.7196,7.19992 0,1.30036 1.4659,3.72796 3.2576,5.39469 6.7558,6.28451 6.5223,12.46639 -0.6057,16.03452 -6.817,3.41252 -9.1985,3.72554 -29.5269,3.88114 -22.3566,0.17111 -46.0197,1.95839 -60.625,4.57903 -13.9922,2.51063 -81.3156,3.62245 -106.25,1.75466 -9.9687,-0.74675 -31.0625,-1.88508 -46.875,-2.52964 -34.7486,-1.41642 -63.8926,-5.21687 -78.107,-10.18536 -6.5587,-2.29253 -24.679,-3.9993 -58.6206,-5.5216 -6.4503,-0.28929 -14.6065,-1.3584 -18.125,-2.3758 -18.0603,-5.22218 -24.881,-5.84671 -61.7319,-5.65238 -27.0774,0.14279 -38.9915,-0.28876 -48.4155,-1.75371 -14.7896,-2.29901 -36.9165,-3.3709 -81.25,-3.93596 -20.4641,-0.26084 -34.1203,-0.9579 -36.875,-1.88228 -7.3461,-2.46498 -51.4119,-0.99026 -76.875,2.57274 -5.5,0.7696 -13.8083,1.09821 -18.4629,0.73025 -5.1151,-0.40437 -11.7905,0.0281 -16.875,1.09331 -4.6266,0.96929 -13.1934,2.09858 -19.0371,2.50953 -5.84375,0.41095 -15.96875,1.8346 -22.5,3.16366 -6.53125,1.32906 -17.5,2.91633 -24.375,3.52726 -12.09112,1.07445 -24.38225,3.27574 -40,7.16382 -4.125,1.02692 -12.5625,2.60633 -18.75,3.50981 -8.26225,1.2064 -14.07175,2.99435 -21.875,6.73224 -5.84375,2.79926 -17.09375,7.18545 -25,9.74707 -42.55187,13.78681 -39.33725,12.45258 -39.75512,16.50045 -0.24663,2.3895 0.77025,5.38248 2.89662,8.52495 4.18788,6.18925 20.04788,21.36682 25.12325,24.04224 2.13938,1.12774 8.04563,4.23499 13.125,6.905 5.07938,2.67001 12.6365,7.27843 16.79363,10.24091 4.15712,2.96249 11.29787,6.74368 15.86825,8.40265 10.50462,3.81295 25.42762,13.90469 29.0855,19.66914 1.54175,2.4295 5.75512,7.64725 9.36312,11.595 l 6.56,7.17774 2.50275,19.02999 c 2.579,19.60936 2.31363,27.72095 -1.52225,46.53 -0.70112,3.4375 -1.83625,15.97142 -2.52275,27.85316 -0.71925,12.44939 -2.32725,26.48524 -3.795,33.125 -1.40075,6.33701 -3.12187,14.10464 -3.82475,17.26139 -0.70275,3.15675 -1.74012,10.32608 -2.30525,15.93187 -0.56512,5.60578 -1.61125,10.89798 -2.3245,11.76045 -0.71337,0.86246 -1.87137,4.38063 -2.57337,7.81813 -3.38575,16.57938 -7.6005,26.42563 -12.03288,28.11085 -1.73925,0.661 -3.16225,1.78596 -3.16225,2.49966 0,0.71369 -2.6495,4.04585 -5.88775,7.40479 -3.23825,3.35893 -7.87887,9.60817 -10.3125,13.8872 -4.20125,7.38711 -4.8035,7.89926 -11.92475,10.14063 -4.125,1.29834 -12,2.71288 -17.5,3.14342 -6.5415,0.51208 -15.18762,2.4928 -25,5.72716 -11.15612,3.67731 -18.20325,5.19334 -27.5,5.91596 -9.87137,0.76729 -14.91887,1.91998 -24.003,5.48154 -11.04912,4.33201 -11.856,4.4656 -20.45275,3.38615 -6.977,-0.87605 -9.69187,-1.83458 -12.3155,-4.3482 -3.205,-3.07064 -4.018,-3.22251 -17.04712,-3.18466 -10.04513,0.0292 -14.3265,0.52756 -16.108,1.875 -4.73788,3.58353 -8.19863,1.71355 -8.19863,-4.43005 0,-1.44473 -1.05412,-2.46054 -2.8125,-2.71027 -2.11212,-0.29997 -2.90562,-1.35122 -3.18625,-4.22168 -1.08062,-11.04974 27.38938,-31.73822 38.39575,-27.90137 4.2605,1.48524 7.97,0.5749 21.52288,-5.28198 4.56225,-1.97154 11.31225,-4.21833 15,-4.99285 3.68787,-0.77453 7.54887,-2.11632 8.58012,-2.98177 3.44838,-2.8939 7.43525,-4.46777 14.68313,-5.79632 9.24625,-1.69486 16.41775,-5.69398 17.42787,-9.71851 0.43,-1.7134 4.02713,-6.6037 7.9935,-10.86733 8.74,-9.39484 12.3955,-16.20551 12.3955,-23.09456 0,-2.84984 1.34825,-9.76288 2.996,-15.3623 4.44888,-15.1178 11.05175,-44.12508 11.99163,-52.68076 0.45312,-4.125 2.07325,-11.07414 3.60025,-15.44254 2.04762,-5.85779 2.56387,-9.3588 1.96712,-13.33825 -0.7365,-4.91204 -1.442,-5.78148 -7.8695,-9.6993 -8.48187,-5.16999 -18.77775,-10.58768 -31.4355,-16.54139 -16.28462,-7.65964 -34.91287,-17.81534 -42.27137,-23.04535 -6.76238,-4.8058 -23.86038,-13.80763 -26.22713,-13.80763 -0.61275,0 -2.13213,-1.125 -3.3765,-2.5 -1.24438,-1.375 -2.91888,-2.5 -3.721,-2.5 -0.80225,0 -3.66825,-1.67185 -6.36887,-3.71522 -2.7005,-2.04338 -5.50238,-3.73088 -6.22625,-3.75 -0.72388,-0.0191 -5.96888,-2.28478 -11.6555,-5.03478 -6.58488,-3.1844 -12.09163,-5 -15.165,-5 -6.265,0 -11.16413,-1.89469 -14.7265,-5.69538 -2.08025,-2.21952 -4.18488,-3.05462 -7.69788,-3.05462 -3.86775,0 -6.20437,-1.11565 -11.68175,-5.57741 -3.76575,-3.06758 -8.66225,-7.86955 -10.881,-10.67106 l -4.03429,-5.09366 -7.67097,0.78372 c -4.21905,0.43105 -10.76474,1.52887 -14.54599,2.43963 -3.78125,0.91077 -11.23938,2.66146 -16.57363,3.89044 -9.36107,2.15674 -9.74471,2.38884 -11.02301,6.66893 -0.72841,2.43892 -1.80072,10.62191 -2.38291,18.18441 -1.38681,18.01448 -4.58604,37.4091 -6.9131,41.90912 -1.02154,1.97545 -1.85735,4.40629 -1.85735,5.40187 0,0.99558 -1.73635,5.10163 -3.85855,9.12457 -4.27685,8.1074 -8.0003,20.88354 -10.51051,36.06444 -2.68373,16.2302 -5.01453,25.33456 -9.92032,38.75 -3.48717,9.53606 -4.24821,22.31261 -2.02676,34.02622 1.3168,6.94347 0.12633,12.9708 -5.43796,27.53238 -3.89903,10.20364 -9.21114,16.98261 -16.03635,20.46457 -2.77676,1.4166 -8.53009,5.52904 -12.7852,9.13875 -4.2551,3.60972 -9.5787,7.63749 -11.83024,8.9506 -2.72097,1.58689 -5.48325,5.112 -8.2376,10.51248 -4.32355,8.47721 -15.76758,27.80676 -18.19367,30.73001 -4.39772,5.29894 -30.58254,15.3881 -46.9637,18.0954 -11.56589,1.91148 -37.76053,3.83444 -56.07414,4.11642 -15.15044,0.23327 -19.64473,1.13944 -41.25,8.31706 -7.93744,2.63695 -10.57911,2.86053 -15.63309,1.32319 z"
       id="path3410"
       style="fill:#000000" />
  </g>
</svg>
